<svg xmlns="http://www.w3.org/2000/svg" enable-background="new 0 0 500 421" viewBox="0 0 500 421" id="waiter-holding-tray-in-restaurant"><path fill="#cce9ff" d="m317.39 185.093 7.631 5.942 7.216 11.757a.494.494 0 0 1-.481.749 2.439 2.439 0 0 1-.426-.082c-.345-.122-2.424-2.325-4.405-4.375-1.977-2.049-3.532-2.021-6.199-4.316-2.664-2.291-4.021-4.297-4.021-4.297l-3.028-2.359 3.713-3.019zM306.685 129.512c-.031-.298-1.694-2.767-2.424-3.84-.174-1.682-.351-3.183-.456-4.359a1.868 1.868 0 0 0-2.096-1.688l-8.728.384-2.608 13.087-3.932 6.095 7.509 5.196 1.884-7.547s10.851 5.124 8.903-3.286c-.185-.803-.019-1.653-.056-2.473.827-.518 2.027-1.317 2.004-1.569z"></path><path fill="#cce9ff" d="M302.8 125.723c0 .37-.218.669-.479.669-.264 0-.477-.299-.477-.669 0-.369.214-.667.477-.667.261-.001.479.298.479.667zM290.374 133.095s1.264-.153 2.035-.69c.765-.538 2.035-2.495 2.035-2.495s-1.076-1.229-.808-3.07c.27-1.843 1.806-2.533 3.146-.999 0 0 .037-1.228.616-1.804.575-.575.614-2.916.229-3.378 0 0 4.277.155 5.132-.862.856-1.018 1.357-2.015 1.357-2.015s-6.026-.884-8.56-1.19c-2.531-.307-5.412.576-5.486 1.65 0 0-1.959-.192-2.458 2.879-.499 3.07 2.762 11.974 2.762 11.974zM295.834 151.147l3.015 20.753 21.959 14.03-3.448 6.678-24.604-14.669a4.087 4.087 0 0 1-1.871-4.496l4.359-17.464.59-4.832zM312.536 245.229s-.882 2.648-.996 4.183c-.115 1.536 3.453 2.702 3.453 2.702l7.275-2.625s-1.325-1.067-1.441-1.877c-.117-.809-.422-2.536-.422-2.536l-7.869.153z"></path><path fill="#cce9ff" d="m311.539 246.558 6.908-39.056 6.333 11.053-2.513 28.749c0 .001-6.124.234-10.728-.746zM311.136 248.693s-1.049 4.091-.612 7.514h4.937s.877-.648 2.005-.711c1.127-.061 4.132.711 6.386.711h10.398s0-3.185-2.066-4.123c-2.068-.94-7.328-1.941-8.141-2.818-.816-.877-1.23-1.129-1.711-1.045-.484.083-1.107 2.087-4.552 1.961-2.192-.081-6.644-1.489-6.644-1.489z"></path><path fill="#cce9ff" d="M323.628 247.303v3.261s5.948 1.997 8.06 1.459 3.414-1.804 3.414-1.804l-1.628-.992s-2.671-1.696-2.671-3.039c.001-1.343-7.175 1.115-7.175 1.115z"></path><path fill="#cce9ff" d="M280.387 192.303s-.86 13.434 3.06 15.717c1.431.834 28.037.159 32.576.038a.725.725 0 0 1 .74.637l5.505 39.335 11.206-.922s-4.589-46.437-4.589-47.972c0-1.534-.49-2.848-6.138-3.992-6.834-1.381-28.556-3.454-28.556-3.454l-13.804.613z"></path><path fill="#cce9ff" d="M286.441 139.19s-5.678 5.449-5.678 11.437c0 5.987-1.307 40.219-1.232 40.988.079.768 4.298 1.237 8.52 1.237s16.063 2.218 16.063-1.161c0-3.991-4.857-31.008-4.857-35.614 0-4.607-1.379-9.442-3.991-11.59-2.608-2.151-8.825-5.297-8.825-5.297z"></path><path fill="#cce9ff" d="m291.724 152.182 2.892 24.022-3.686-2.974z"></path><path fill="#cce9ff" d="m298.661 173.832-4.335.861a1.14 1.14 0 0 1-1.36-1.053l-1.243-21.458a3.91 3.91 0 0 0-4.132-3.681 3.913 3.913 0 0 0-3.682 4.133l.444 27.484c.046.763.283 1.513.731 2.131a3.921 3.921 0 0 0 3.947 1.56l9.323-1.934c.089-2.458.199-5.236.307-8.043zM323.056 248.977s-1.125 3.538-.687 6.96h5.075s.877-.649 2.005-.709c1.127-.063 4.132.709 6.387.709h10.396s0-2.027-2.068-2.966c-2.067-.938-7.325-1.941-8.142-2.817-.814-.877-1.291-1.732-1.774-1.65-.481.083-1.106 2.087-4.553 1.962-2.189-.079-6.639-1.489-6.639-1.489zM336.946 175.609h13.355v.595h-13.355zM323.59 175.609h13.356v.595H323.59zM375.243 175.609h13.355v.595h-13.355zM361.889 175.609h13.354v.595h-13.354zM373.087 250.22s3.377-5.797 4.375-7.946c.997-2.148 4.089-39.035 4.718-39.834.635-.797 5.564-3.378 5.564-3.378l1.462 3.453s-.54 11.973-1.688 15.889c-1.153 3.916-3.907 16.335-4.338 20.033-.148 1.274.191 4.376.191 4.376s-3.376 8.441-5.372 9.518c-1.996 1.073-5.449 1.458-5.449 1.458l.537-3.569z"></path><path fill="#cce9ff" d="M374.159 251.945s1.071.267 4.143-2.994c1.289-1.368 3.723-6.191 4.74-6.586 1.017-.399 1.63.6 1.939 1.481.306.884.651 2.879 0 4.76-.653 1.879-.731 7.253-.731 7.253h-1.536s-.306-5.526-.534-5.566c-.233-.038-2.882 1.229-3.34 2.917-.462 1.688-.499 2.495-1.038 2.649-.537.153-13.449.037-13.779 0-.326-.038.363-1.085 4.069-2.802 3.647-1.688 4.297-3.408 4.759-3.262.463.147.155 2.417 1.308 2.15zM434.027 148.4l-2.534-5.344-.614-16.351-7.25.342a2.172 2.172 0 0 0-2.19 1.654c-.352 1.444-.722 3.39-1.006 5.376l-1.813 2.718a.447.447 0 0 0 .205.682l.884.374c.182.077.29.258.281.453-.111 1.888-.046 3.449.315 4.138.624 1.186 5.73 1.718 5.73 1.718l-.375 11.071 8.367-6.831z"></path><path fill="#cce9ff" d="M422.695 134.122c0 .37-.214.667-.479.667-.262 0-.477-.297-.477-.667 0-.368.215-.669.477-.669.265.001.479.301.479.669zM397.928 192.69l-7.884.46-10.614 8.366s1.011.461 2.73 0c1.723-.46 7.884-2.455 7.884-2.455l9.504-2.764-1.62-3.607z"></path><path fill="#cce9ff" d="m422.491 165.438-6.525 15.124-18.518 11.109a.907.907 0 0 0-.513 1.187l1.762 3.686 22.258-10.073 5.297-10.537-3.761-10.496zM380.542 176.163l-1.628-1.099a.351.351 0 0 1 .12-.633l17.051-4.118 13.182 2.938-1.496 5.294-11.379-3.663s-2.762 1.535-4.835 1.611c-2.072.077-11.015-.33-11.015-.33zM391.312 197.487s-8.406 2.647-8.633 3.108c-.233.461-1.038.461 0 4.374 1.034 3.916 9.9 34.887 9.668 37.765-.229 2.879-5.871 9.671-5.871 9.671v1.728s2.886 1.15 5.875-2.417c2.989-3.571 6.675-8.29 6.675-8.29s-1.843-1.612-2.188-4.376c-.346-2.762-.461-20.494-1.497-23.832-.782-2.517-2.608-5.363-3.462-6.61a.48.48 0 0 1 .333-.748l10.5-1.392-11.4-8.981z"></path><path fill="#cce9ff" d="M389.239 251.945s1.076.267 4.144-2.994c1.29-1.368 3.724-6.191 4.74-6.586 1.016-.399 1.632.6 1.94 1.481.306.884.651 2.879 0 4.76-.654 1.879-.731 7.253-.731 7.253h-1.533s-.309-5.526-.539-5.566c-.229-.038-2.878 1.229-3.34 2.917-.459 1.688-.496 2.495-1.034 2.649-.539.153-13.453.037-13.78 0-.328-.038.363-1.085 4.07-2.802 3.646-1.688 4.3-3.408 4.759-3.262.462.147.154 2.417 1.304 2.15zM428.961 149.705s-8.781 10.995-9.937 14.488c-.278.847-.329 7.191 1.45 10.087a5.663 5.663 0 0 1 .759 3.908l-1.944 11.469-29.245 7.022 5.874 14.966s3.384-3.856 6.147-3.626c2.763.23 31.86 0 31.86 0s4.131-4.432 4.131-10.65c0-4.013-1.728-10.139-2.949-13.975a11.065 11.065 0 0 1 .114-7.091c1.7-4.755 4.45-12.94 4.45-16.122 0-4.604-5.874-12.435-5.874-12.435s-2.533.578-4.836 1.959z"></path><path fill="#cce9ff" d="m429.867 160.027-2.854 9.273c-2.567 2.229-6.163 1.032-6.163 1.032l3.866 6.439-2.577 2.577-1.289 5.152 10.304 3.863c.784.349 2.471-.437 2.576-1.287l2.577-28.339-6.44 1.29z"></path><path fill="#cce9ff" d="M429.279 185.335c-.407 0-.814-.063-1.205-.19l-26.789-7.253a1.057 1.057 0 0 1-.683-1.334l1.761-5.438c.18-.554.773-.859 1.326-.681l20.786 5.311a1.535 1.535 0 0 0 1.984-1.207l3.065-18.397a3.917 3.917 0 0 1 7.725 1.288l-4.105 24.63a3.925 3.925 0 0 1-1.827 2.701 3.93 3.93 0 0 1-2.038.57z"></path><path fill="#cce9ff" d="M439.67 138.99c-1.903-2.994-1.348-8.232-2.371-10.247-1.026-2.015-3.962-4.837-9.087-4.548-5.125.288-8.287 2.59-9.036 5.18-.749 2.591 1.552 2.696 1.552 2.696s.508-2.659 1.294-4.107c0 0 1.716 4.75 4.963 5.96 0 0 2.264 10.016 1.63 13.067-.632 3.052-1.63 4.318-1.63 4.318s4.049 1.727 8.079 1.554c4.03-.172 4.086-1.438 4.086-1.438M353.791 254.38s2.06-1.261 2.925-1.447c.865-.187 1.561-.63 1.561-.63l.933-2.824h4.986s.166 6.644 0 6.702c-.166.057-11.403 0-11.403 0s.306-1.397.998-1.801z"></path><path fill="#cce9ff" d="M374.749 254.38s-2.063-1.261-2.927-1.447c-.863-.187-1.56-.63-1.56-.63l-.934-2.824h-4.983s-.168 6.644 0 6.702c.166.057 11.401 0 11.401 0s-.306-1.397-.997-1.801zM348.846 167.438a4.22 4.22 0 0 0 3.22-4.098v-9.134h-8.444v9.134a4.222 4.222 0 0 0 3.219 4.098c.28.067.485.311.485.602v6.371a.546.546 0 0 1-.363.515l-2.504.904a.249.249 0 0 0 .085.482h6.602a.249.249 0 0 0 .249-.247.25.25 0 0 0-.166-.235l-2.506-.904a.547.547 0 0 1-.362-.515v-6.371c0-.291.206-.535.485-.602z"></path><path fill="#cce9ff" d="M343.968 160.117v3.223a3.86 3.86 0 0 0 2.956 3.762c.216.054 1.625.054 1.841 0a3.858 3.858 0 0 0 2.954-3.762v-3.223h-7.751z"></path><path fill="#cce9ff" d="M349.734 160.117v3.223a3.862 3.862 0 0 1-2.883 3.741c.024.006.046.015.073.021.216.054 1.625.054 1.841 0a3.858 3.858 0 0 0 2.954-3.762v-3.223h-1.985zM349.734 154.55h1.985v5.566h-1.985zM316.377 255.937l-10.653-42.042 5.253.097 8.972 41.939zM269.706 255.937h-4.548l5.489-42.406 6.034 1.172z"></path><path fill="#cce9ff" d="M312.113 208.021h-37.146l-10.096-46.525a3.32 3.32 0 0 0-6.56 1.025l9.451 50.029a3.91 3.91 0 0 0 3.863 3.3h40.488c.871 0 1.575-.706 1.575-1.575v-4.681a1.572 1.572 0 0 0-1.575-1.573zM396.011 255.937l10.651-42.042-5.252.097-8.973 41.939zM442.677 255.937h4.551l-5.489-42.406-6.035 1.172z"></path><path fill="#cce9ff" d="M400.27 208.021h37.149l10.096-46.525a3.319 3.319 0 0 1 6.56 1.025l-9.447 50.029a3.918 3.918 0 0 1-3.868 3.3h-40.49a1.575 1.575 0 0 1-1.573-1.575v-4.681a1.575 1.575 0 0 1 1.573-1.573zM318.434 178.728h73.279v77.203h-73.279z"></path><path fill="#cce9ff" d="M394.346 176.204h-73.39a2.522 2.522 0 0 0-2.522 2.524 2.52 2.52 0 0 0 2.522 2.524h73.39a2.521 2.521 0 0 0 2.522-2.524 2.522 2.522 0 0 0-2.522-2.524z"></path><path fill="#cce9ff" d="M356.077 252.463h3.148v3.474h-3.148z" transform="rotate(-180 357.65 254.2)"></path><path fill="#cce9ff" d="M366.053 167.438a4.223 4.223 0 0 1-3.217-4.098v-9.134h8.444v9.134a4.223 4.223 0 0 1-3.217 4.098.62.62 0 0 0-.486.602v6.371c0 .232.145.438.361.515l2.504.904a.247.247 0 0 1 .165.235.249.249 0 0 1-.248.247h-6.603a.248.248 0 0 1-.083-.482l2.504-.904a.544.544 0 0 0 .364-.515v-6.371a.623.623 0 0 0-.488-.602z"></path><path fill="#cce9ff" d="M370.931 160.117v3.223a3.86 3.86 0 0 1-2.954 3.762c-.216.054-1.625.054-1.843 0a3.86 3.86 0 0 1-2.954-3.762v-3.223h7.751z"></path><path fill="#cce9ff" d="M365.168 160.117v3.223a3.864 3.864 0 0 0 2.883 3.741l-.073.021c-.216.054-1.625.054-1.843 0a3.86 3.86 0 0 1-2.954-3.762v-3.223h1.987zM363.182 154.55h1.986v5.566h-1.986zM171.33 170.257h-9.671l-12.917 4.844a.495.495 0 0 0-.081.888c.151.09.29.165.389.198.348.115 3.34-.347 6.161-.749 2.822-.402 4.029.576 7.543.402 3.51-.172 5.812-.92 5.812-.92h3.838l-1.074-4.663zM192.778 129.512c.031-.298 1.694-2.767 2.424-3.84.174-1.682.351-3.183.456-4.359a1.869 1.869 0 0 1 2.096-1.688l8.728.384 2.609 13.087 3.934 6.095-7.512 5.196-1.884-7.547s-8.894 1.789-8.903-3.286c0-.825.019-1.653.056-2.473-.827-.518-2.027-1.317-2.004-1.569z"></path><path fill="#cce9ff" d="M196.665 125.723c0 .37.215.669.477.669s.477-.299.477-.669c0-.369-.215-.667-.477-.667-.262-.001-.477.298-.477.667zM209.09 133.095s-1.266-.153-2.036-.69c-.765-.538-2.035-2.495-2.035-2.495s1.076-1.229.807-3.07c-.269-1.843-1.805-2.533-3.145-.999 0 0-.037-1.228-.616-1.804-.575-.575-.614-2.916-.229-3.378 0 0-4.277.155-5.132-.862-.856-1.018-1.356-2.015-1.356-2.015s6.026-.884 8.56-1.19c2.531-.307 5.412.576 5.486 1.65 0 0 1.959-.192 2.458 2.879.5 3.07-2.762 11.974-2.762 11.974zM202.259 150.741l-8.194 20.495-25.945-2.419-1.382 7.387 28.425 3.538a4.08 4.08 0 0 0 4.237-2.398l7.288-16.456-4.429-10.147zM186.927 245.229s.882 2.648.996 4.183c.115 1.536-3.453 2.702-3.453 2.702l-7.275-2.625s1.326-1.067 1.442-1.877c.115-.809.424-2.536.424-2.536l7.866.153z"></path><path fill="#cce9ff" d="m187.925 246.558-6.909-39.056-6.333 11.053 2.513 28.749c0 .001 6.123.234 10.729-.746zM188.327 248.693s1.049 4.091.612 7.514h-4.937s-.877-.648-2.003-.711c-1.129-.061-4.135.711-6.388.711h-10.398s0-3.185 2.066-4.123c2.068-.94 7.33-1.941 8.141-2.818.816-.877 1.23-1.129 1.711-1.045.484.083 1.107 2.087 4.555 1.961 2.188-.081 6.641-1.489 6.641-1.489z"></path><path fill="#cce9ff" d="M175.835 247.303v3.261s-5.949 1.997-8.061 1.459c-2.11-.538-3.414-1.804-3.414-1.804l1.628-.992s2.671-1.696 2.671-3.039c0-1.343 7.176 1.115 7.176 1.115zM184.703 170.257h-9.675l-12.916 4.844a.495.495 0 0 0-.081.888c.151.09.292.165.389.198.348.115 3.34-.347 6.159-.749 2.822-.402 4.032.576 7.543.402 3.512-.172 5.815-.92 5.815-.92h3.837l-1.071-4.663z"></path><path fill="#cce9ff" d="M219.077 192.303s.859 13.434-3.061 15.717c-1.431.834-28.037.159-32.576.038a.722.722 0 0 0-.738.637l-5.507 39.335-11.206-.922s4.589-46.437 4.589-47.972c0-1.534.49-2.848 6.137-3.992 6.835-1.381 28.557-3.454 28.557-3.454l13.805.613z"></path><path fill="#cce9ff" d="M213.024 139.19s5.678 5.449 5.678 11.437c0 5.987 1.304 40.219 1.23 40.988-.078.768-4.299 1.237-8.52 1.237-4.222 0-10.053.53-10.053-2.849 0-3.992-1.153-29.32-1.153-33.926 0-4.607 1.38-9.442 3.993-11.59 2.606-2.151 8.825-5.297 8.825-5.297z"></path><path fill="#cce9ff" d="m207.739 152.182-2.893 24.022 3.687-2.974z"></path><path fill="#cce9ff" d="m200.804 173.832 4.332.861a1.14 1.14 0 0 0 1.36-1.053l1.243-21.458a3.913 3.913 0 1 1 7.814.452l-.444 27.484c-.046.763-.283 1.513-.731 2.131a3.919 3.919 0 0 1-3.947 1.56l-9.323-1.934c-.089-2.458-.197-5.236-.304-8.043z"></path><path fill="#cce9ff" d="M210.069 181.252a3.927 3.927 0 0 0 3.184-1.632c.447-.621.683-1.369.729-2.135l1.57-27.177a3.913 3.913 0 1 0-7.814-.452l-1.243 21.457a1.14 1.14 0 0 1-1.36 1.053l-19.504-3.872a1.111 1.111 0 0 0-1.308.873l-1.092 5.5c-.12.602.273 1.187.874 1.307l25.2 5.003c.256.051.509.075.764.075zM176.408 248.977s1.124 3.538.686 6.96h-5.075s-.877-.649-2.003-.709c-1.129-.063-4.135.709-6.39.709h-10.395s0-2.027 2.067-2.966c2.067-.938 7.326-1.941 8.141-2.817.814-.877 1.291-1.732 1.774-1.65.483.083 1.106 2.087 4.553 1.962 2.192-.079 6.642-1.489 6.642-1.489zM149.161 175.609h13.355v.595h-13.355zM162.516 175.609h13.356v.595h-13.356zM110.864 175.609h13.355v.595h-13.355z"></path><path fill="#cce9ff" d="M124.219 175.609h13.354v.595h-13.354zM126.376 250.22s-3.377-5.797-4.374-7.946c-.998-2.148-4.089-39.035-4.72-39.834-.633-.797-5.564-3.378-5.564-3.378l-1.459 3.453s.537 11.973 1.687 15.889c1.152 3.916 3.906 16.335 4.337 20.033.15 1.274-.191 4.376-.191 4.376s3.376 8.441 5.373 9.518c1.995 1.073 5.449 1.458 5.449 1.458l-.538-3.569z"></path><path fill="#cce9ff" d="M125.305 251.945s-1.072.267-4.144-2.994c-1.289-1.368-3.723-6.191-4.74-6.586-1.017-.399-1.629.6-1.939 1.481-.306.884-.651 2.879 0 4.76.655 1.879.731 7.253.731 7.253h1.536s.306-5.526.534-5.566c.233-.038 2.882 1.229 3.34 2.917.462 1.688.499 2.495 1.038 2.649.537.153 13.448.037 13.779 0 .326-.038-.363-1.085-4.068-2.802-3.648-1.688-4.299-3.408-4.76-3.262-.464.147-.154 2.417-1.307 2.15zM65.436 148.4l2.534-5.344.614-16.351 7.25.342a2.169 2.169 0 0 1 2.189 1.654c.352 1.444.722 3.39 1.006 5.376l1.815 2.718c.17.256.076.561-.206.682l-.884.374a.465.465 0 0 0-.282.453c.111 1.888.046 3.449-.315 4.138-.624 1.186-5.729 1.718-5.729 1.718l.374 11.071-8.366-6.831z"></path><path fill="#cce9ff" d="M76.77 134.122c0 .37.214.667.476.667s.477-.297.477-.667c0-.368-.215-.669-.477-.669-.262.001-.476.301-.476.669zM101.534 192.69l7.884.46 10.614 8.366s-1.011.461-2.73 0c-1.723-.46-7.884-2.455-7.884-2.455l-9.504-2.764 1.62-3.607z"></path><path fill="#cce9ff" d="m76.971 165.438 6.525 15.124 18.518 11.109a.908.908 0 0 1 .514 1.187l-1.763 3.686-22.258-10.073-5.295-10.537 3.759-10.496zM108.153 197.487s8.404 2.647 8.632 3.108c.231.461 1.036.461 0 4.374-1.035 3.916-9.901 34.887-9.67 37.765.23 2.879 5.874 9.671 5.874 9.671v1.728s-2.888 1.15-5.878-2.417c-2.988-3.571-6.675-8.29-6.675-8.29s1.843-1.612 2.188-4.376c.346-2.762.461-20.494 1.499-23.832.781-2.517 2.607-5.363 3.46-6.61a.48.48 0 0 0-.333-.748l-10.5-1.392 11.403-8.981z"></path><path fill="#cce9ff" d="M110.223 251.945s-1.076.267-4.142-2.994c-1.291-1.368-3.725-6.191-4.741-6.586-1.016-.399-1.632.6-1.94 1.481-.306.884-.651 2.879 0 4.76.654 1.879.731 7.253.731 7.253h1.534s.307-5.526.537-5.566c.23-.038 2.881 1.229 3.34 2.917.459 1.688.496 2.495 1.035 2.649.538.153 13.451.037 13.779 0 .328-.038-.364-1.085-4.068-2.802-3.647-1.688-4.301-3.408-4.761-3.262-.462.147-.153 2.417-1.304 2.15zM70.501 149.705s8.784 10.995 9.937 14.488c.278.847.329 7.191-1.45 10.087a5.663 5.663 0 0 0-.759 3.908l1.944 11.469 29.245 7.022-5.873 14.966s-3.385-3.856-6.148-3.626c-2.763.23-31.857 0-31.857 0s-4.134-4.432-4.134-10.65c0-4.013 1.728-10.139 2.948-13.975a11.051 11.051 0 0 0-.114-7.091c-1.699-4.755-4.447-12.94-4.447-16.122 0-4.604 5.871-12.435 5.871-12.435s2.535.578 4.837 1.959z"></path><path fill="#cce9ff" d="m69.595 160.027 2.855 9.273c2.566 2.229 6.162 1.032 6.162 1.032l-3.865 6.439 2.576 2.577 1.289 5.152-10.303 3.863c-.783.349-2.472-.437-2.577-1.287l-2.576-28.339 6.439 1.29zM59.795 138.99c1.9-2.994 1.345-8.232 2.369-10.247 1.026-2.015 3.962-4.837 9.087-4.548 5.125.288 8.289 2.59 9.036 5.18.751 2.591-1.552 2.696-1.552 2.696s-.508-2.659-1.292-4.107c0 0-1.717 4.75-4.964 5.96 0 0-2.264 10.016-1.629 13.067.632 3.052 1.629 4.318 1.629 4.318s-4.048 1.727-8.079 1.554c-4.028-.172-4.086-1.438-4.086-1.438M145.673 254.38s-2.062-1.261-2.927-1.447c-.865-.187-1.56-.63-1.56-.63l-.934-2.824h-4.986s-.166 6.644 0 6.702c.169.057 11.403 0 11.403 0s-.304-1.397-.996-1.801z"></path><path fill="#cce9ff" d="M124.713 254.38s2.063-1.261 2.927-1.447a5.405 5.405 0 0 0 1.56-.63l.934-2.824h4.983s.168 6.644 0 6.702c-.164.057-11.398 0-11.398 0s.303-1.397.994-1.801zM150.616 167.438a4.222 4.222 0 0 1-3.22-4.098v-9.134h8.444v9.134a4.223 4.223 0 0 1-3.216 4.098.623.623 0 0 0-.488.602v6.371c0 .232.146.438.363.515l2.505.904a.248.248 0 0 1-.086.482h-6.602a.25.25 0 0 1-.25-.247c0-.106.067-.198.166-.235l2.506-.904a.548.548 0 0 0 .363-.515v-6.371a.622.622 0 0 0-.485-.602z"></path><path fill="#cce9ff" d="M155.494 160.117v3.223a3.86 3.86 0 0 1-2.956 3.762c-.216.054-1.625.054-1.841 0a3.86 3.86 0 0 1-2.952-3.762v-3.223h7.749z"></path><path fill="#cce9ff" d="M149.728 160.117v3.223a3.864 3.864 0 0 0 2.883 3.741c-.024.006-.046.015-.073.021-.216.054-1.625.054-1.841 0a3.86 3.86 0 0 1-2.952-3.762v-3.223h1.983zM147.744 154.55h1.984v5.566h-1.984zM183.085 255.937l10.654-42.042-5.252.097-8.974 41.939zM229.756 255.937h4.548l-5.488-42.406-6.034 1.172z"></path><path fill="#cce9ff" d="M187.349 208.021h37.146l10.096-46.525a3.32 3.32 0 0 1 3.281-2.778 3.322 3.322 0 0 1 3.281 3.803l-9.452 50.029a3.91 3.91 0 0 1-3.863 3.3h-40.489a1.576 1.576 0 0 1-1.575-1.575v-4.681c0-.868.706-1.573 1.575-1.573zM103.451 255.937 92.8 213.895l5.252.097 8.976 41.939zM56.785 255.937h-4.551l5.489-42.406 6.035 1.172z"></path><path fill="#cce9ff" d="M99.192 208.021H62.043l-10.096-46.525a3.318 3.318 0 0 0-3.278-2.778 3.318 3.318 0 0 0-3.281 3.803l9.448 50.029a3.917 3.917 0 0 0 3.867 3.3h40.489c.868 0 1.573-.706 1.573-1.575v-4.681c0-.868-.705-1.573-1.573-1.573z"></path><path fill="#cce9ff" d="M107.749 178.728h73.282v77.203h-73.282z" transform="rotate(-180 144.39 217.33)"></path><path fill="#cce9ff" d="M105.116 176.204h73.39a2.524 2.524 0 1 1 0 5.048h-73.39a2.523 2.523 0 0 1 0-5.048zM140.24 252.463h3.146v3.474h-3.146z"></path><path fill="#cce9ff" d="M133.409 167.438a4.22 4.22 0 0 0 3.217-4.098v-9.134h-8.444v9.134a4.222 4.222 0 0 0 3.22 4.098c.28.067.484.311.484.602v6.371a.543.543 0 0 1-.361.515l-2.504.904a.246.246 0 0 0-.164.235c0 .136.111.247.247.247h6.603a.248.248 0 0 0 .084-.482l-2.506-.904a.544.544 0 0 1-.363-.515v-6.371a.625.625 0 0 1 .487-.602z"></path><path fill="#cce9ff" d="M128.531 160.117v3.223a3.86 3.86 0 0 0 2.954 3.762c.216.054 1.625.054 1.844 0a3.86 3.86 0 0 0 2.952-3.762v-3.223h-7.75z"></path><path fill="#cce9ff" d="M134.295 160.117v3.223a3.86 3.86 0 0 1-2.883 3.741l.073.021c.216.054 1.625.054 1.844 0a3.86 3.86 0 0 0 2.952-3.762v-3.223h-1.986zM134.295 154.55h1.986v5.566h-1.986zM58.13 139.589c0 2.649 2.146 4.797 4.798 4.797a4.797 4.797 0 1 0 0-9.596 4.797 4.797 0 0 0-4.798 4.799z"></path><path fill="#cce9ff" d="M52.444 147.747a5.686 5.686 0 1 0 11.371 0 5.686 5.686 0 0 0-11.371 0z"></path><path fill="#cce9ff" d="M51.456 157.332a8.338 8.338 0 0 0 8.339 8.338 8.339 8.339 0 1 0 0-16.675 8.339 8.339 0 0 0-8.339 8.337zM12.855 255.76l463.939-5.366s36.5-3.165 17.947 25.989c-18.551 29.158-117.209 40.659-173.36 65.049-57.992 25.186-95.07-12.01-154.262-14.777-59.189-2.771-130.165-20.141-147.295-38.861-23.301-25.465-26.625-31.219-6.969-32.034z"></path><path fill="#0b4870" fill-rule="evenodd" d="m233.24 261.954-3.476 4.092-5.147 4.525c-.527.372-.763 2.884.151 2.78l5.114.608c1.628.193 3.404-.402 4.909-1.134 1.096-.534 2.181-1.455 3.555-2.3l.538 1.173 4.896-1.61.251-3.514c.75-3.758-.632-4.431-1.019-7.08l-8.451-.122-1.321 2.582zM258.614 260.406l-.171 9.913s2.943 4.977 4.635 5.678c1.843.768 6.552.635 7.952-.793 1.303-1.323.602-7.402.602-7.402l-3.947-8.274-9.071.878z" clip-rule="evenodd"></path><path fill="#0e538c" d="M231.665 155.906s22.758-3.956 33.16-.219c.433.155.85.323 1.249.51l.069.507c.105.768.325 2.371.614 4.551.046.368.097.753.153 1.147 1.479 11.208.54 27.495.965 35.445.553 10.428.681 11.912.681 13.87.005 5.288.456 49.794.456 49.794s-6.634 1.688-11.492 0c0 0-1.735-44.146-2.731-47.415-.995-3.265-4.336-37.755-5.579-37.898-1.244-.141-5.244 36.178-5.508 40.475-.261 4.294 1.282 44.151-.141 44.86-1.418.708-9.777.782-10.202-.637 0 0-.392-40.515-.392-44.776 0-4.259-2.726-37.445-2.605-38.869.001 0-.388-10.423 1.303-21.345z"></path><path fill="#ebbaa0" d="m201.019 126.757-1.485-3.741-.89-5.03h-2.084l-.519 5.03-3.345-2.057-2.155-2.973h-2.304l1.559 2.751-4.162-2.751h-2.6l10.33 8.771 7.212 3.865z"></path><path fill="#f2f2f2" d="m199.476 132.726 23.902 8.884a2.553 2.553 0 0 0 3.189-1.286l5.764-12.066.084-.181.315-.657a698.495 698.495 0 0 0-.136-3.562c-.136-3.176-.264-5.281-.264-5.281-.279-3.78-.479-7.315-.596-10.631-.077.054-.146.103-.215.154l-.01.003c-.453.316-.801.594-.934.797-.499.747-8.198 18.756-9.831 22.58a.792.792 0 0 1-1.021.428l-17.333-6.811a1.528 1.528 0 0 0-1.989.877l-1.822 4.773a1.526 1.526 0 0 0 .897 1.979z"></path><path fill="#d3d3d3" d="M219.726 131.292v28.088a.705.705 0 0 1-.706.704h-9.649a.704.704 0 0 1-.704-.704v-31.482c0-.974.988-1.637 1.889-1.269l8.318 3.396c.514.208.852.711.852 1.267z"></path><path fill="#0b4870" d="M189.775 100.195a2.251 2.251 0 1 0 4.504 0 2.254 2.254 0 0 0-2.252-2.252 2.25 2.25 0 0 0-2.252 2.252z"></path><path fill="#2a94f4" d="M192.028 101.119c8.799 0 15.935 7.134 15.935 15.935H176.09c0-8.8 7.136-15.935 15.938-15.935z"></path><path fill="#0e538c" d="M195.857 115.577h22.569l-1.784 2.409h-49.231l-1.781-2.409z"></path><path fill="#f2f2f2" d="m260.213 100.712 1.413.536a43.066 43.066 0 0 0-1.413-.536zM242.036 102.732l.973 5.862 3.847 33.177 6.209-24.372 6.931-16.768c-.092-.036-.184-.067-.264-.099-.059-.019-.113-.04-.164-.059-.151-.059-.274-.104-.358-.135-.87-.315-1.477-.509-1.648-.517-.115-.01-.422.004-.862.036a30.577 30.577 0 0 0-.056 1.021c-1.625 1.161-6.913 1.813-6.913 1.813s-2.777.671-2.862-.809c-.002-.005-.002-.005 0-.01a.213.213 0 0 1 .01-.171c.067-.157.225-.621.315-1.016l-.417.04s-.694.239-1.61.607l-.008.005c-.399.157-.834.346-1.282.549-.553.253-1.178.54-1.841.846zM267.943 159.088c.187.765.317 1.234.358 1.301l-.358-1.301zm-1.756-8.826c6.24-3.194 20.214-10.576 20.01-12.601-.187-1.894-11.062-30.551-12.654-31.694-.453-.324-2.337-1.076-4.53-1.912l-1.236 20.564s-2.216-6.644 1.236.621c1.042 2.193 3.604 5.362 4.883 8.173.952 2.074-3.88 5.034-8.392 7.445-.251 2.305.13 5.913.683 9.404z"></path><path fill="#f1b99e" d="M246.868 101.873c-.002.005-.002.005 0 .01.085 1.48 2.862 3.347 2.862 3.347s5.288-3.19 6.913-4.351c0 0 .01-.337.056-1.021.112-1.485.432-4.59 1.336-9.339.353-1.854-10.775 4.885-10.775 4.885s.031.648.054 1.53c.015.463.023.99.015 1.515 0 .185 0 .369-.005.553-.01.491-.033.963-.072 1.359-.01.094-.033.207-.059.324-.09.396-.248.859-.315 1.016a.438.438 0 0 0-.01.172z"></path><path fill="#f1b99e" d="M246.868 101.873a.413.413 0 0 1 .01-.171.213.213 0 0 0-.01.171zM241.402 78.344s-2.447 4.533-1.236 5.238c1.003.583-1.172 5.029-1.456 5.756-.284.728 1.814 1.255 2.26 1.724.445.466 1.766 6.222 3.494 6.396 1.728.175 9.511-2.533 11.633-4.738 2.119-2.205 3.86-12.16 2.444-16.359-1.417-4.201-12.827-5.933-17.139 1.983z"></path><path fill="#fcd2b1" d="M240.483 80.323s-2.634-7.515 1.684-8.975c5.503-1.859 13.672 2.196 14.614 2.438.942.244 6.286.61 3.588 9.994-2.316 8.058-2.641 8.397-2.641 8.397s-1.73-4.666-2.708-5.38c-1.533-1.11-4.888-.843-4.888-.843s1.6-4.245-.898-4.847c-2.499-.6-2.806 2.998-8.751-.784z"></path><path fill="#eea886" d="M252.794 83.524c.22-.583.932-3.087 3.082-1.616 2.147 1.469-1.339 6.188-1.712 6.247-.377.063-3.223.268-1.37-4.631z"></path><path fill="#a77860" d="M247.329 98.45c0 .186-.003.371-.005.555 6.365-2.137 7.599-5.353 7.599-5.353-1.984 1.405-7.607 3.281-7.607 3.281.011.464.018.989.013 1.517z"></path><path fill="#f2f2f2" d="M262.374 101.536c.031.014.059.023.079.036.159.064.325.125.494.194l.532.207c.028.009.059.018.085.031.972.369 2.099.793 3.235 1.214l-4.425-1.682z"></path><path fill="#2a94f4" d="M230.45 161.869c.294.081 1.134.963 3.005 1.868.346.166.729.332 1.152.497 2.933 1.135 7.742 2.062 15.497 1.072a70.393 70.393 0 0 0 5.354-.899s9.564-1.949 12.469-3.743c.146-.091.271-.181.379-.265 0 0-.005-.005-.005-.009-.041-.068-.171-.536-.358-1.301l-.015-.067a122.181 122.181 0 0 1-1.74-8.76c-.553-3.491-.934-7.099-.683-9.403.051-.436.102-.9.159-1.39.538-4.746 1.392-11.787 1.991-14.378a6.66 6.66 0 0 1 .123-.472l1.236-20.564-1.039-.396c-.23-.081-.458-.171-.683-.257-.161-.062-.33-.12-.491-.184a496.79 496.79 0 0 1-3.235-1.214c-.026-.014-.056-.022-.085-.031l-.532-.207c-.169-.068-.335-.13-.494-.194-.02-.013-.049-.022-.079-.036-.033-.009-.059-.022-.095-.036l-.653-.251-1.413-.536-.217-.081-6.931 16.768-4.197 15.78-5.859-24.585-.973-5.862c-2.114.976-4.65 2.151-6.729 3.132-.01.004-.013.009-.023.009a.33.33 0 0 0-.026.014c-.015.004-.023.013-.036.018-.028.013-.059.032-.095.049a66.543 66.543 0 0 0-2.378 1.355l-.52.319c-.171.109-.34.217-.496.32a280 280 0 0 0 .596 10.631s.128 2.105.264 5.281c.044 1.075.09 2.276.136 3.562l-.315.657-.084.181c.169 7.045.228 14.725-.046 21.028a297.289 297.289 0 0 1-1.804 12.394c0 .004-.005.004-.005.004-.004.06-.02.119-.027.182z"></path><path fill="#0b4870" d="M250.72 104.674s1.651-2.326 3.263-2.185c2.309.203 1.866 5.274.448 5.469-1.656.227-3.711-1.752-3.711-1.752s.405-.993 0-1.532zM249.21 104.674s-1.651-2.326-3.266-2.185c-2.309.203-1.866 5.274-.45 5.469 1.658.227 3.716-1.752 3.716-1.752s-.407-.993 0-1.532z"></path><path fill="#0b4870" d="M248.563 105.372a1.55 1.55 0 0 0 3.097 0 1.548 1.548 0 1 0-3.097 0z"></path></svg>